<svg width="308" height="80" viewBox="0 0 308 80" fill="none" xmlns="http://www.w3.org/2000/svg">
<path fill-rule="evenodd" clip-rule="evenodd" d="M177.589 22.2783C176.257 20.917 174.721 19.7625 172.993 18.8325C170.268 17.3639 166.984 16.6184 163.234 16.6184C158.823 16.6184 154.904 17.683 151.59 19.7825C148.286 21.8719 145.691 24.7293 143.873 28.2749C142.068 31.7956 141.15 35.77 141.15 40.0885C141.15 44.4071 142.065 48.3067 143.871 51.8573C145.686 55.4328 148.284 58.3052 151.59 60.3971C154.904 62.4965 158.823 63.5612 163.234 63.5612C166.984 63.5612 170.268 62.8157 172.993 61.3471C174.721 60.4146 176.26 59.2726 177.589 57.9361V62.868H186.358V0H177.589V22.2783ZM176.309 32.3466C177.389 34.6654 177.935 37.271 177.935 40.0885C177.935 42.9061 177.389 45.4418 176.309 47.7906C175.247 50.0994 173.676 51.9645 171.642 53.3383C169.622 54.7022 167.086 55.3929 164.099 55.3929C161.112 55.3929 158.607 54.6972 156.497 53.3259C154.378 51.9495 152.737 50.0795 151.623 47.7706C150.493 45.4269 149.92 42.8412 149.92 40.086C149.92 37.3309 150.493 34.6754 151.62 32.3641C152.735 30.0826 154.375 28.225 156.497 26.8462C158.607 25.4748 161.165 24.7792 164.099 24.7792C167.034 24.7792 169.62 25.4699 171.642 26.8337C173.676 28.2101 175.25 30.0652 176.309 32.3441V32.3466ZM34.8028 19.7799C31.4866 17.6805 27.5695 16.6158 23.1587 16.6158C19.4137 16.6158 16.1324 17.3439 13.4096 18.7826C11.6767 19.6977 10.1358 20.8396 8.80437 22.196V17.309H0.0351562V80H8.80437V57.8513C10.1333 59.1928 11.6668 60.3447 13.3922 61.2947C16.115 62.7957 19.4012 63.5562 23.1587 63.5562C27.5695 63.5562 31.4866 62.4915 34.8028 60.3921C38.109 58.3001 40.7071 55.4278 42.5223 51.8523C44.325 48.3017 45.2426 44.3422 45.2426 40.0835C45.2426 35.8248 44.3275 31.7905 42.5223 28.2699C40.7046 24.7243 38.1065 21.8694 34.8028 19.7774V19.7799ZM36.4734 40.086C36.4734 42.8437 35.8999 45.4293 34.7704 47.7706C33.6559 50.082 32.0277 51.952 29.9333 53.3308C27.8538 54.6997 25.2831 55.3929 22.2935 55.3929C19.304 55.3929 16.838 54.6997 14.7885 53.3333C12.7265 51.9595 11.1456 50.0944 10.086 47.7881C9.00633 45.4418 8.45779 42.8512 8.45779 40.086C8.45779 37.3209 9.00384 34.6604 10.0835 32.3441C11.1407 30.0676 12.724 28.215 14.7885 26.8387C16.8405 25.4723 19.3638 24.7792 22.2935 24.7792C25.2233 24.7792 27.8513 25.4723 29.9333 26.8412C32.0302 28.2225 33.6584 30.0801 34.7729 32.364C35.9024 34.6754 36.4734 37.2735 36.4734 40.086ZM83.8052 22.2783C82.4737 20.9169 80.9378 19.7625 79.2099 18.8325C76.4846 17.3639 73.2009 16.6183 69.4508 16.6183C65.04 16.6183 61.1204 17.683 57.8067 19.7824C54.503 21.8719 51.9074 24.7293 50.0897 28.2749C48.2845 31.7955 47.367 35.77 47.367 40.0885C47.367 44.407 48.282 48.3067 50.0872 51.8573C51.9024 55.4328 54.5005 58.3051 57.8067 60.3971C61.1204 62.4965 65.04 63.5612 69.4508 63.5612C73.2009 63.5612 76.4846 62.8156 79.2099 61.347C80.9378 60.4145 82.4762 59.2726 83.8052 57.9361V62.868H92.5744V17.3115H83.8052V22.2783ZM82.5261 32.3466C83.6057 34.6654 84.1518 37.271 84.1518 40.0885C84.1518 42.906 83.6057 45.4418 82.5261 47.7906C81.4639 50.0994 79.8931 51.9645 77.8585 53.3383C75.8388 54.7022 73.3031 55.3929 70.316 55.3929C67.3289 55.3929 64.8231 54.6972 62.7137 53.3259C60.5943 51.9495 58.9537 50.0795 57.8391 47.7706C56.7096 45.4268 56.1362 42.8412 56.1362 40.086C56.1362 37.3308 56.7096 34.6754 57.8367 32.364C58.9512 30.0826 60.5918 28.225 62.7137 26.8462C64.8231 25.4748 67.3813 24.7792 70.316 24.7792C73.2507 24.7792 75.8363 25.4698 77.8585 26.8337C79.8931 28.2101 81.4664 30.0651 82.5261 32.3441V32.3466ZM118.573 16.6183C121.749 16.6183 124.769 17.3788 127.552 18.8748H127.556C130.357 20.3833 132.66 22.6523 134.403 25.6194C136.144 28.5841 137.026 32.2568 137.026 36.5404V62.8655H128.257V36.7125C128.257 33.0572 127.252 30.2122 125.19 28.0156C123.146 25.8389 120.558 24.7817 117.279 24.7817C115.065 24.7817 113.038 25.2878 111.255 26.2827C109.479 27.275 108.033 28.6963 106.961 30.5015C105.889 32.3042 105.345 34.4236 105.345 36.7997V62.8655H96.5763V17.3115H105.345V22.1487C106.53 20.9568 107.854 19.8921 109.305 18.9621C111.731 17.4062 114.85 16.6183 118.573 16.6183ZM213.02 16.6183C217.66 16.6183 221.719 17.6805 225.09 19.775C228.456 21.8669 231.084 24.7268 232.902 28.2724C234.707 31.7955 235.625 35.8273 235.625 40.086C235.625 44.3447 234.709 48.3042 232.904 51.8548C231.087 55.4328 228.459 58.3076 225.09 60.3996C221.719 62.494 217.597 63.5562 213.02 63.5562C208.442 63.5562 204.397 62.494 200.999 60.4021C197.6 58.3101 194.955 55.4328 193.137 51.8548C191.332 48.3042 190.417 44.4045 190.417 40.086C190.417 35.7675 191.335 31.793 193.14 28.2724C194.96 24.7243 197.603 21.8644 200.999 19.7725C204.395 17.6805 208.379 16.6183 213.02 16.6183ZM213.02 55.3929C216.007 55.3929 218.542 54.7022 220.562 53.3383V53.3358C222.597 51.962 224.165 50.0969 225.227 47.7881C226.309 45.4418 226.855 42.906 226.855 40.086C226.855 37.266 226.307 34.6629 225.23 32.3441C224.17 30.0651 222.599 28.2125 220.562 26.8337C218.542 25.4698 215.947 24.7792 213.02 24.7792C210.092 24.7792 207.567 25.4723 205.517 26.8387C203.452 28.215 201.869 30.0676 200.809 32.3441C199.732 34.6604 199.186 37.3209 199.186 40.086C199.186 42.8512 199.732 45.4418 200.812 47.7881C201.874 50.0969 203.455 51.962 205.517 53.3333C207.564 54.6997 210.032 55.3929 213.02 55.3929ZM264.311 16.6183H262.742C259.935 16.6183 257.459 17.1045 255.385 18.067C253.335 19.0145 251.61 20.1839 250.253 21.5403C249.346 22.4479 248.578 23.3579 247.954 24.263V17.3115H239.185V62.8655H247.954V42.6866C247.954 39.6871 248.548 36.8272 249.717 34.1892C250.872 31.5836 252.557 29.4343 254.726 27.7986C256.851 26.1979 259.431 25.3876 262.393 25.3876H264.311V16.6183ZM299.196 22.2808V17.3115H307.965V62.8705H299.196V57.9361C297.867 59.2751 296.328 60.4145 294.6 61.347C291.875 62.8156 288.591 63.5612 284.841 63.5612C280.431 63.5612 276.511 62.4965 273.197 60.3971C269.891 58.3051 267.293 55.4328 265.478 51.8573C263.672 48.3067 262.757 44.407 262.757 40.0885C262.757 35.77 263.675 31.7955 265.48 28.2749C267.298 24.7293 269.893 21.8719 273.197 19.7824C276.511 17.683 280.431 16.6183 284.841 16.6183C288.591 16.6183 291.875 17.3639 294.6 18.8325C296.326 19.765 297.864 20.9194 299.196 22.2808ZM297.914 47.7906C298.996 45.4418 299.542 42.8512 299.542 40.0885L299.54 40.086C299.54 37.2685 298.994 34.6629 297.914 32.3441C296.854 30.0651 295.284 28.2125 293.246 26.8337C291.227 25.4698 288.641 24.7792 285.706 24.7792C282.772 24.7792 280.214 25.4748 278.104 26.8462C275.982 28.225 274.342 30.0826 273.227 32.364C272.1 34.6754 271.527 37.3308 271.527 40.086C271.527 42.8412 272.1 45.4268 273.23 47.7706C274.344 50.0795 275.985 51.9495 278.104 53.3259C280.214 54.6972 282.722 55.3929 285.706 55.3929C288.691 55.3929 291.229 54.7022 293.246 53.3383C295.284 51.9645 296.852 50.0994 297.914 47.7906Z" fill="url(#paint0_linear_103_40483)"/>
<defs>
<linearGradient id="paint0_linear_103_40483" x1="0.0351562" y1="0" x2="38.9748" y2="149.883" gradientUnits="userSpaceOnUse">
<stop stop-color="#77ED8B"/>
<stop offset="1" stop-color="#22C55E"/>
</linearGradient>
</defs>
</svg>
