<svg width="20" height="20" viewBox="0 0 20 20" fill="none" xmlns="http://www.w3.org/2000/svg">
<path id="Vector" d="M10 0C4.47688 0 0 4.47688 0 10C0 15.5231 4.47688 20 10 20C15.5231 20 20 15.5231 20 10C20 4.47688 15.5231 0 10 0ZM6.89 4.17844C7.08507 4.14611 7.28536 4.17918 7.45969 4.2725L10.2503 5.89484C10.3787 5.96192 10.4858 6.06364 10.5594 6.18847C10.633 6.3133 10.6701 6.45624 10.6666 6.60109V7.69406L9.36516 8.46984V7.34219C9.36047 7.19815 9.31913 7.05769 9.24504 6.93408C9.17094 6.81047 9.06655 6.7078 8.94172 6.63578L7.425 5.78906C7.29481 5.71934 7.14941 5.68285 7.00172 5.68285C6.85403 5.68285 6.70863 5.71934 6.57844 5.78906L5.06172 6.63562C4.93202 6.70182 4.82354 6.80313 4.74864 6.928C4.67374 7.05288 4.63545 7.19629 4.63812 7.34188V9.10359C4.64281 9.24763 4.68415 9.38809 4.75825 9.5117C4.83234 9.63531 4.93674 9.73798 5.06156 9.81L6.57844 10.6927C6.70872 10.7621 6.85409 10.7984 7.00172 10.7984C7.14935 10.7984 7.29472 10.7621 7.425 10.6927L9.33344 9.56344L10.6666 8.8225L12.575 7.69391C12.7053 7.62447 12.8506 7.58816 12.9983 7.58816C13.1459 7.58816 13.2913 7.62447 13.4216 7.69391L16.2433 9.31531C16.373 9.38134 16.4815 9.48253 16.5564 9.60731C16.6313 9.73209 16.6696 9.87543 16.6669 10.0209V13.3022C16.6623 13.4456 16.6214 13.5856 16.5479 13.7089C16.4745 13.8322 16.3709 13.9348 16.2469 14.007L13.4253 15.6297C13.295 15.6994 13.1495 15.7359 13.0017 15.7359C12.8539 15.7359 12.7084 15.6994 12.5781 15.6297L9.75641 14.0078C9.62679 13.9416 9.5184 13.8402 9.44361 13.7154C9.36882 13.5905 9.33065 13.4471 9.33344 13.3016V12.1734L10.6 11.4331V12.5659C10.6048 12.7098 10.6462 12.8501 10.7202 12.9735C10.7943 13.0969 10.8987 13.1994 11.0234 13.2712L12.5403 14.1178C12.6705 14.1875 12.8159 14.224 12.9636 14.224C13.1113 14.224 13.2567 14.1875 13.3869 14.1178L14.9036 13.2366C15.0331 13.1704 15.1414 13.0692 15.2162 12.9445C15.291 12.8198 15.3292 12.6766 15.3266 12.5312V10.8027C15.322 10.6587 15.2807 10.5183 15.2067 10.3947C15.1327 10.2711 15.0284 10.1684 14.9036 10.0964L13.3869 9.25C13.2566 9.18057 13.1112 9.14425 12.9636 9.14425C12.816 9.14425 12.6706 9.18057 12.5403 9.25L10.6384 10.3402L9.33344 11.1159L7.425 12.2097C7.29472 12.2791 7.14935 12.3154 7.00172 12.3154C6.85409 12.3154 6.70872 12.2791 6.57844 12.2097L3.75672 10.5834C3.62754 10.5176 3.51939 10.4169 3.44452 10.2927C3.36965 10.1686 3.33106 10.0259 3.33313 9.88094V6.60094C3.32576 6.45 3.36607 6.30057 3.44835 6.17381C3.53062 6.04706 3.6507 5.94941 3.79156 5.89469L6.61313 4.2725C6.69965 4.2262 6.79318 4.19443 6.89 4.17844Z" fill="#22C55E"/>
</svg>
