<svg width="20" height="20" viewBox="0 0 20 20" fill="none" xmlns="http://www.w3.org/2000/svg">
<path id="Subtract" fill-rule="evenodd" clip-rule="evenodd" d="M17.0711 17.0711C15.1957 18.9464 12.6522 20 10 20C7.34784 20 4.8043 18.9464 2.92893 17.0711C1.05357 15.1957 0 12.6522 0 10C0 7.34784 1.05357 4.8043 2.92893 2.92893C4.8043 1.05357 7.34784 0 10 0C12.6522 0 15.1957 1.05357 17.0711 2.92893C18.9464 4.8043 20 7.34784 20 10C20 12.6522 18.9464 15.1957 17.0711 17.0711ZM10.7281 11.4192L11.4361 10.7113L16.2974 15.5727L15.5895 16.2806L10.7281 11.4192ZM3.70312 4.41584L4.40994 3.70789L9.27131 8.56925L8.56449 9.2772L3.70312 4.41584ZM10.7247 8.58289L15.5804 3.71584L15.5815 3.71811L16.2895 4.42493L11.4315 9.28857L10.7247 8.58289ZM3.71903 15.5874L8.57699 10.7227L9.28494 11.4306L4.42699 16.2942L3.71903 15.5874Z" fill="#22C55E"/>
</svg>
