<svg width="16" height="20" viewBox="0 0 16 20" fill="none" xmlns="http://www.w3.org/2000/svg">
<path id="Vector" d="M13.3918 12.6397C13.7524 12.246 14.0749 11.8102 14.3558 11.3357C15.0319 10.1863 15.3717 8.92443 15.3717 7.55009C15.3717 6.17574 15.0354 4.88928 14.3627 3.73638C13.69 2.57997 12.7885 1.6696 11.6546 1.00176C10.5208 0.333921 9.29334 0 7.97573 0C6.65811 0 5.40985 0.333921 4.26907 1.00176C3.12829 1.6696 2.21983 2.57996 1.54022 3.72935C0.86061 4.87873 0.524272 6.13357 0.524272 7.49736C0.524272 8.86116 0.864078 10.1933 1.54022 11.3497C1.82802 11.8418 2.16089 12.2917 2.5319 12.6924C1.27323 13.4692 0.5 14.5132 0.5 15.659C0.5 18.0527 3.86338 20 8 20C12.1366 20 15.5 18.0527 15.5 15.659C15.5 14.4886 14.6956 13.4235 13.3883 12.6432L13.3918 12.6397ZM2.62205 17.5149C1.87656 16.9525 1.47087 16.3093 1.47087 15.6555C1.47087 14.8506 2.08807 14.0562 3.20458 13.4165C3.22538 13.406 3.24619 13.3919 3.27046 13.3814C3.57906 13.6344 3.90499 13.8629 4.2552 14.0703C4.28988 14.0914 4.32802 14.109 4.36269 14.13C3.16297 14.7276 2.40014 15.6169 2.40014 16.6046C2.40014 16.9209 2.47642 17.2232 2.62205 17.5149ZM8.00694 18.8858C6.30444 18.8858 5.37517 18.1371 5.37517 17.7504C5.37517 17.3638 6.30444 16.6151 8.00694 16.6151C9.70943 16.6151 10.6387 17.3638 10.6387 17.7504C10.6387 18.1371 9.70943 18.8858 8.00694 18.8858ZM11.5784 18.007C11.5957 17.9227 11.6061 17.8383 11.6061 17.7504C11.6061 16.5835 9.99029 15.638 8.00694 15.638C6.02358 15.638 4.40777 16.587 4.40777 17.7504C4.40777 17.8383 4.41817 17.9227 4.43551 18.007C3.7767 17.6098 3.36755 17.1178 3.36755 16.6046C3.36755 15.8313 4.29334 15.1072 5.60055 14.6889C6.33218 14.9385 7.09154 15.0615 7.88558 15.0615C8.73509 15.0615 9.54646 14.9279 10.3197 14.6608C11.6789 15.0721 12.6463 15.8172 12.6463 16.6046C12.6463 17.1178 12.2372 17.6098 11.5784 18.007ZM13.3918 17.5149C13.5374 17.2267 13.6137 16.9209 13.6137 16.6046C13.6137 15.5923 12.8162 14.6889 11.5714 14.0879C11.5888 14.0773 11.6061 14.0703 11.6234 14.0598C11.9945 13.8453 12.3412 13.6028 12.6602 13.3357C12.7087 13.3638 12.7607 13.3884 12.8093 13.4165C13.9258 14.0562 14.543 14.8506 14.543 15.6555C14.543 16.3058 14.1408 16.9525 13.3918 17.5149Z" fill="#22C55E"/>
</svg>
