<svg width="12" height="16" viewBox="0 0 12 16" fill="none" xmlns="http://www.w3.org/2000/svg">
<path id="Vector" opacity="0.8" d="M10.3135 10.1118C10.6019 9.79684 10.8599 9.44815 11.0846 9.06854C11.6255 8.14903 11.8974 7.13954 11.8974 6.04007C11.8974 4.9406 11.6283 3.91142 11.0902 2.9891C10.552 2.06397 9.83079 1.33568 8.92372 0.801408C8.01664 0.267137 7.03467 0 5.98058 0C4.92649 0 3.92788 0.267137 3.01526 0.801408C2.10263 1.33568 1.37587 2.06397 0.832178 2.98348C0.288488 3.90299 0.0194174 4.90685 0.0194174 5.99789C0.0194174 7.08893 0.291262 8.15466 0.832178 9.07979C1.06241 9.47346 1.32871 9.83339 1.62552 10.154C0.618585 10.7754 0 11.6105 0 12.5272C0 14.4422 2.69071 16 6 16C9.30929 16 12 14.4422 12 12.5272C12 11.5909 11.3564 10.7388 10.3107 10.1146L10.3135 10.1118ZM1.69764 14.0119C1.10125 13.562 0.776699 13.0475 0.776699 12.5244C0.776699 11.8805 1.27046 11.245 2.16366 10.7332C2.1803 10.7248 2.19695 10.7135 2.21637 10.7051C2.46325 10.9076 2.72399 11.0903 3.00416 11.2562C3.0319 11.2731 3.06241 11.2872 3.09015 11.304C2.13037 11.7821 1.52011 12.4935 1.52011 13.2837C1.52011 13.5367 1.58114 13.7786 1.69764 14.0119ZM6.00555 15.1086C4.64355 15.1086 3.90014 14.5097 3.90014 14.2003C3.90014 13.891 4.64355 13.2921 6.00555 13.2921C7.36754 13.2921 8.11096 13.891 8.11096 14.2003C8.11096 14.5097 7.36754 15.1086 6.00555 15.1086ZM8.86269 14.4056C8.87656 14.3381 8.88488 14.2706 8.88488 14.2003C8.88488 13.2668 7.59223 12.5104 6.00555 12.5104C4.41886 12.5104 3.12621 13.2696 3.12621 14.2003C3.12621 14.2706 3.13454 14.3381 3.14841 14.4056C2.62136 14.0879 2.29404 13.6942 2.29404 13.2837C2.29404 12.665 3.03467 12.0858 4.08044 11.7511C4.66574 11.9508 5.27323 12.0492 5.90846 12.0492C6.58807 12.0492 7.23717 11.9424 7.85576 11.7286C8.94313 12.0576 9.71706 12.6538 9.71706 13.2837C9.71706 13.6942 9.38974 14.0879 8.86269 14.4056ZM10.3135 14.0119C10.43 13.7814 10.491 13.5367 10.491 13.2837C10.491 12.4738 9.85298 11.7511 8.85714 11.2703C8.87101 11.2619 8.88488 11.2562 8.89875 11.2478C9.19556 11.0763 9.47295 10.8822 9.72815 10.6685C9.76699 10.691 9.8086 10.7107 9.84743 10.7332C10.7406 11.245 11.2344 11.8805 11.2344 12.5244C11.2344 13.0446 10.9126 13.562 10.3135 14.0119Z" fill="white"/>
</svg>
